<svg width="124" height="236" viewBox="0 0 124 236" fill="none" xmlns="http://www.w3.org/2000/svg">
<path d="M150.029 1.76852C150.962 -0.456263 154.307 0.567594 153.835 2.93338L137.269 85.9343C136.941 87.5769 138.657 88.8708 140.146 88.1038L215.39 49.3489C217.534 48.2442 219.439 51.1787 217.556 52.6875L151.514 105.621C150.207 106.669 150.689 108.763 152.323 109.132L234.874 127.81C237.227 128.343 236.8 131.815 234.388 131.76L149.771 129.859C148.097 129.821 147.121 131.735 148.135 133.069L199.367 200.44C200.827 202.36 198.268 204.745 196.455 203.153L132.857 147.306C131.599 146.2 129.62 147.04 129.54 148.713L125.481 233.253C125.365 235.663 121.872 235.845 121.506 233.46L108.686 149.799C108.432 148.143 106.377 147.514 105.24 148.744L47.7888 210.897C46.1512 212.668 43.3581 210.562 44.611 208.501L88.5664 136.171C89.4363 134.74 88.2665 132.937 86.6049 133.149L2.64366 143.831C0.250501 144.136 -0.535334 140.727 1.7496 139.953L81.9138 112.8C83.5003 112.262 83.7629 110.13 82.3541 109.223L11.1693 63.4377C9.14034 62.1326 10.7295 59.0162 12.9773 59.892L91.8405 90.6199C93.4013 91.228 94.9734 89.7629 94.4767 88.1632L69.3765 7.33262C68.6611 5.02869 71.8817 3.66286 73.0406 5.77868L113.702 80.0099C114.507 81.4789 116.653 81.3671 117.3 79.8224L150.029 1.76852Z" fill="#FFD39E"/>
</svg>
