<svg width="24" height="24" viewBox="0 0 24 24" fill="none" xmlns="http://www.w3.org/2000/svg">
<circle cx="12" cy="12" r="12" fill="#000"/>
<path d="M16.2305 9.12731C15.924 8.93996 15.5255 8.93996 15.1883 9.12731L12.7971 10.5636L11.1724 11.5004L8.78122 12.9367C8.47468 13.124 8.07615 13.124 7.73893 12.9367L5.83828 11.8126C5.53173 11.6253 5.31713 11.2818 5.31713 10.9071V8.69016C5.31713 8.31547 5.50107 7.972 5.83828 7.78465L7.70828 6.69179C8.01483 6.50444 8.41334 6.50444 8.75058 6.69179L10.6206 7.78465C10.9271 7.972 11.1417 8.31547 11.1417 8.69016V10.1265L12.7665 9.15853V7.7222C12.7665 7.3475 12.5826 7.00404 12.2453 6.81669L8.78122 4.75587C8.47468 4.56852 8.07615 4.56852 7.73893 4.75587L4.21353 6.81669C3.87632 7.00404 3.69238 7.3475 3.69238 7.7222V11.8751C3.69238 12.2497 3.87632 12.5932 4.21353 12.7806L7.73893 14.8414C8.04549 15.0288 8.44403 15.0288 8.78122 14.8414L11.1724 13.4363L12.7971 12.4683L15.1883 11.0632C15.4948 10.8759 15.8934 10.8759 16.2305 11.0632L18.1005 12.1561C18.4071 12.3434 18.6217 12.6869 18.6217 13.0616V15.2785C18.6217 15.6532 18.4378 15.9967 18.1005 16.184L16.2305 17.3082C15.924 17.4955 15.5255 17.4955 15.1883 17.3082L13.3183 16.2153C13.0117 16.0279 12.7971 15.6845 12.7971 15.3097V13.8734L11.1724 14.8414V16.2777C11.1724 16.6524 11.3563 16.9959 11.6935 17.1832L15.2189 19.2441C15.5255 19.4314 15.924 19.4314 16.2612 19.2441L19.7866 17.1832C20.0932 16.9959 20.3078 16.6524 20.3078 16.2777V12.1249C20.3078 11.7502 20.1238 11.4067 19.7866 11.2194L16.2305 9.12731Z" fill="#F9F9FB"/>
</svg>
