<svg width="24" height="24" viewBox="0 0 24 24" fill="none" xmlns="http://www.w3.org/2000/svg">
<mask id="path-1-inside-1_477_1291" fill="white">
<path fill-rule="evenodd" clip-rule="evenodd" d="M5 2C3.34315 2 2 3.34315 2 5V19C2 20.6569 3.34315 22 5 22H19C20.6569 22 22 20.6569 22 19V17C22.5523 17 23 16.5523 23 16V8C23 7.44772 22.5523 7 22 7V5C22 3.34315 20.6569 2 19 2H5ZM20 7V5C20 4.44772 19.5523 4 19 4H5C4.44772 4 4 4.44772 4 5V19C4 19.5523 4.44772 20 5 20H19C19.5523 20 20 19.5523 20 19V17H14C12.8954 17 12 16.1046 12 15V9C12 7.89543 12.8954 7 14 7H20Z"/>
</mask>
<path d="M22 17V15H20V17H22ZM22 7H20V9H22V7ZM20 7V9H22V7H20ZM20 17H22V15H20V17ZM4 5C4 4.44772 4.44772 4 5 4V0C2.23858 0 0 2.23858 0 5H4ZM4 19V5H0V19H4ZM5 20C4.44772 20 4 19.5523 4 19H0C0 21.7614 2.23858 24 5 24V20ZM19 20H5V24H19V20ZM20 19C20 19.5523 19.5523 20 19 20V24C21.7614 24 24 21.7614 24 19H20ZM20 17V19H24V17H20ZM21 16C21 15.4477 21.4477 15 22 15V19C23.6569 19 25 17.6569 25 16H21ZM21 8V16H25V8H21ZM22 9C21.4477 9 21 8.55229 21 8H25C25 6.34315 23.6569 5 22 5V9ZM20 5V7H24V5H20ZM19 4C19.5523 4 20 4.44772 20 5H24C24 2.23858 21.7614 0 19 0V4ZM5 4H19V0H5V4ZM22 7V5H18V7H22ZM22 5C22 3.34315 20.6569 2 19 2V6C18.4477 6 18 5.55229 18 5H22ZM19 2H5V6H19V2ZM5 2C3.34315 2 2 3.34315 2 5H6C6 5.55228 5.55228 6 5 6V2ZM2 5V19H6V5H2ZM2 19C2 20.6569 3.34315 22 5 22V18C5.55229 18 6 18.4477 6 19H2ZM5 22H19V18H5V22ZM19 22C20.6569 22 22 20.6569 22 19H18C18 18.4477 18.4477 18 19 18V22ZM22 19V17H18V19H22ZM20 15H14V19H20V15ZM14 15H10C10 17.2091 11.7909 19 14 19V15ZM14 15V9H10V15H14ZM14 9V5C11.7909 5 10 6.79086 10 9H14ZM14 9H20V5H14V9Z" fill="#BFCACF" mask="url(#path-1-inside-1_477_1291)"/>
<path d="M16 12H16.01" stroke="#BFCACF" stroke-width="2" stroke-linecap="round" stroke-linejoin="round"/>
</svg>
